<svg xmlns="http://www.w3.org/2000/svg" xmlns:xlink="http://www.w3.org/1999/xlink" width="500" zoomAndPan="magnify" viewBox="0 0 375 374.999991" height="500" preserveAspectRatio="xMidYMid meet" version="1.0"><defs><clipPath id="5762f63502"><path d="M 95.144531 83.410156 L 279.644531 83.410156 L 279.644531 291.910156 L 95.144531 291.910156 Z M 95.144531 83.410156 " clip-rule="nonzero"/></clipPath></defs><g clip-path="url(#5762f63502)"><path fill="#ff66c4" d="M 117.050781 123.992188 C 116.996094 124.105469 116.878906 124.160156 116.824219 124.273438 C 113.183594 128.941406 109.9375 133.949219 107.148438 139.242188 C 107.035156 139.46875 106.867188 139.753906 106.75 139.980469 C 106.011719 141.402344 105.273438 142.882812 104.589844 144.363281 C 104.417969 144.761719 104.25 145.160156 104.019531 145.558594 C 103.394531 146.980469 102.824219 148.34375 102.257812 149.769531 C 102.085938 150.167969 101.914062 150.566406 101.800781 150.964844 C 101.175781 152.671875 100.550781 154.378906 100.039062 156.085938 C 100.039062 156.199219 99.980469 156.3125 99.921875 156.425781 C 99.355469 158.304688 98.785156 160.179688 98.328125 162.117188 C 98.214844 162.515625 98.160156 162.914062 98.046875 163.3125 C 97.703125 164.789062 97.363281 166.269531 97.078125 167.808594 C 96.964844 168.433594 96.851562 169.058594 96.738281 169.683594 C 96.507812 170.992188 96.28125 172.300781 96.109375 173.609375 C 95.996094 174.292969 95.941406 174.976562 95.828125 175.660156 C 95.65625 177.023438 95.542969 178.390625 95.429688 179.757812 C 95.429688 180.382812 95.3125 181.007812 95.3125 181.632812 C 95.199219 183.625 95.144531 185.617188 95.144531 187.609375 C 95.144531 220.042969 109.882812 250.035156 135.601562 269.894531 C 153.925781 284.0625 175.890625 291.515625 199.050781 291.515625 C 222.210938 291.515625 252.882812 280.703125 272.515625 261.074219 L 279.855469 253.789062 L 265.800781 239.734375 C 265.800781 239.734375 241.046875 214.980469 241.046875 214.980469 L 233.761719 222.320312 C 224.488281 231.597656 212.136719 236.660156 199.050781 236.660156 C 178.167969 236.660156 159.558594 223.402344 152.730469 203.65625 L 151.25 199.445312 L 129.855469 199.445312 L 132.300781 207.527344 C 141.066406 236.832031 168.550781 257.261719 199.050781 257.261719 C 229.550781 257.261719 201.441406 257.261719 202.464844 257.144531 C 203.488281 257.144531 204.511719 257.03125 205.421875 256.917969 C 206.164062 256.917969 206.902344 256.804688 207.585938 256.691406 C 208.042969 256.691406 208.554688 256.578125 208.722656 256.519531 C 209.691406 256.40625 210.660156 256.234375 211.457031 256.066406 C 212.367188 255.953125 213.21875 255.722656 214.015625 255.554688 C 214.414062 255.496094 214.8125 255.382812 215.210938 255.269531 C 215.835938 255.15625 216.464844 254.984375 217.089844 254.8125 C 217.375 254.757812 217.65625 254.699219 217.941406 254.585938 L 218.683594 254.359375 C 219.195312 254.1875 219.707031 254.074219 219.933594 253.960938 C 220.617188 253.730469 221.300781 253.5625 221.8125 253.332031 C 222.210938 253.21875 222.609375 253.050781 222.894531 252.933594 C 223.574219 252.707031 224.203125 252.480469 224.65625 252.253906 C 225.167969 252.082031 225.625 251.855469 226.195312 251.625 C 226.195312 251.625 227.273438 251.171875 227.332031 251.113281 C 227.957031 250.828125 228.582031 250.546875 229.265625 250.203125 C 230.347656 249.636719 231.65625 249.007812 232.910156 248.324219 C 233.589844 247.984375 234.21875 247.585938 234.898438 247.1875 C 236.09375 246.503906 237.234375 245.707031 238.3125 245.027344 C 239.109375 244.511719 239.851562 244 240.476562 243.488281 L 250.207031 253.21875 C 249.355469 253.847656 248.558594 254.472656 247.703125 255.097656 C 247.191406 255.4375 246.734375 255.78125 246.222656 256.121094 C 245.710938 256.464844 245.257812 256.804688 244.746094 257.144531 C 244.628906 257.261719 244.460938 257.316406 244.347656 257.375 C 230.972656 266.023438 215.269531 270.746094 199.050781 270.746094 C 192.335938 270.460938 186.132812 269.722656 180.328125 268.640625 C 168.71875 265.964844 157.792969 260.84375 148.179688 253.390625 C 127.578125 237.457031 115.742188 213.445312 115.742188 187.4375 C 115.742188 161.433594 115.800781 184.136719 115.914062 182.488281 C 116.652344 170.308594 119.953125 158.871094 125.359375 148.628906 C 125.417969 148.515625 125.472656 148.402344 125.53125 148.289062 C 126.042969 147.320312 126.613281 146.410156 127.125 145.441406 C 127.238281 145.214844 127.351562 145.046875 127.464844 144.816406 C 127.976562 143.964844 128.546875 143.109375 129.058594 142.257812 C 129.230469 141.972656 129.398438 141.746094 129.570312 141.460938 C 130.082031 140.664062 130.652344 139.921875 131.164062 139.128906 C 131.390625 138.84375 131.5625 138.5 131.789062 138.214844 C 132.300781 137.476562 132.871094 136.792969 133.441406 136.054688 C 133.722656 135.710938 133.953125 135.371094 134.238281 135.085938 C 134.75 134.402344 135.316406 133.777344 135.886719 133.09375 C 136.171875 132.753906 136.457031 132.414062 136.796875 132.070312 C 137.367188 131.445312 137.878906 130.875 138.449219 130.25 C 138.789062 129.910156 139.128906 129.511719 139.472656 129.167969 C 140.039062 128.601562 140.609375 128.03125 141.179688 127.460938 C 141.578125 127.121094 141.917969 126.722656 142.316406 126.378906 C 142.886719 125.867188 143.453125 125.355469 144.023438 124.84375 C 144.421875 124.503906 144.820312 124.105469 145.277344 123.761719 C 145.84375 123.25 146.414062 122.796875 146.984375 122.339844 C 147.4375 122 147.894531 121.65625 148.347656 121.257812 C 148.917969 120.804688 149.488281 120.347656 150.113281 119.949219 C 150.566406 119.609375 151.082031 119.265625 151.535156 118.925781 C 152.105469 118.527344 152.730469 118.128906 153.300781 117.730469 C 153.8125 117.390625 154.324219 117.046875 154.835938 116.761719 C 155.292969 116.480469 155.804688 116.195312 156.257812 115.910156 C 156.542969 115.738281 156.828125 115.570312 157.113281 115.398438 C 157.511719 115.171875 157.851562 114.941406 158.25 114.714844 C 158.648438 114.488281 159.046875 114.261719 159.445312 114.089844 C 159.671875 113.976562 159.957031 113.804688 160.183594 113.691406 C 160.695312 113.40625 161.210938 113.179688 161.722656 112.894531 C 161.722656 112.894531 161.835938 112.894531 161.890625 112.835938 C 162.460938 112.554688 163.03125 112.269531 163.597656 111.984375 C 164.226562 111.699219 164.792969 111.414062 165.421875 111.1875 C 165.875 110.960938 166.386719 110.789062 166.84375 110.5625 C 167.128906 110.449219 167.46875 110.332031 167.753906 110.164062 C 168.207031 109.992188 168.664062 109.820312 169.117188 109.59375 C 169.515625 109.421875 169.914062 109.308594 170.3125 109.136719 C 170.597656 109.023438 170.824219 108.910156 171.109375 108.855469 C 171.679688 108.625 172.304688 108.457031 172.875 108.226562 C 173.5 108 174.070312 107.828125 174.695312 107.660156 C 175.378906 107.429688 176.0625 107.261719 176.742188 107.089844 C 177.257812 106.976562 177.710938 106.804688 178.222656 106.691406 C 178.507812 106.632812 178.792969 106.578125 179.078125 106.464844 C 179.644531 106.351562 180.160156 106.179688 180.726562 106.066406 C 181.125 105.953125 181.523438 105.894531 181.980469 105.78125 C 182.265625 105.78125 182.546875 105.667969 182.777344 105.609375 C 183.457031 105.496094 184.140625 105.382812 184.824219 105.269531 C 185.394531 105.15625 185.960938 105.042969 186.589844 104.984375 C 187.386719 104.871094 188.238281 104.757812 189.035156 104.699219 C 189.433594 104.699219 189.890625 104.585938 190.289062 104.527344 C 190.628906 104.527344 190.914062 104.472656 191.253906 104.414062 C 191.996094 104.359375 192.734375 104.300781 193.417969 104.246094 C 193.644531 104.246094 193.871094 104.246094 194.15625 104.246094 C 194.5 104.246094 194.839844 104.246094 195.179688 104.1875 C 196.433594 104.132812 197.742188 104.074219 199.050781 104.074219 C 221.300781 104.074219 242.183594 112.722656 257.945312 128.484375 L 262.382812 132.925781 L 272.910156 122.398438 C 272.910156 122.398438 276.953125 118.355469 276.953125 118.355469 L 272.515625 113.917969 C 252.882812 94.285156 226.820312 83.476562 199.050781 83.476562 C 171.28125 83.476562 195.863281 83.476562 194.328125 83.589844 C 193.929688 83.589844 193.472656 83.589844 193.074219 83.644531 C 191.652344 83.703125 190.289062 83.816406 188.863281 83.988281 C 188.695312 83.988281 188.523438 83.988281 188.351562 83.988281 C 186.871094 84.15625 185.335938 84.328125 183.855469 84.554688 C 183.402344 84.613281 182.945312 84.667969 182.492188 84.785156 C 181.296875 84.953125 180.160156 85.183594 178.964844 85.410156 C 178.621094 85.464844 178.222656 85.523438 177.882812 85.636719 C 176.515625 85.921875 175.152344 86.261719 173.785156 86.605469 C 173.214844 86.71875 172.703125 86.890625 172.136719 87.058594 C 171.167969 87.289062 170.257812 87.570312 169.289062 87.855469 C 168.777344 88.027344 168.265625 88.140625 167.695312 88.3125 C 166.445312 88.710938 165.25 89.109375 163.996094 89.5625 C 163.371094 89.792969 162.746094 90.019531 162.121094 90.246094 C 161.378906 90.53125 160.640625 90.816406 159.957031 91.101562 C 159.332031 91.382812 158.648438 91.613281 158.023438 91.898438 C 156.882812 92.351562 155.804688 92.863281 154.722656 93.375 C 154.039062 93.71875 153.355469 94.058594 152.671875 94.398438 C 152.105469 94.683594 151.535156 94.96875 150.964844 95.3125 C 150.285156 95.652344 149.542969 96.050781 148.859375 96.449219 C 147.835938 97.019531 146.871094 97.585938 145.902344 98.15625 C 136.511719 103.789062 128.035156 110.84375 120.863281 119.039062 C 120.808594 119.097656 120.75 119.210938 120.695312 119.265625 C 119.441406 120.691406 118.246094 122.167969 117.109375 123.648438 Z M 117.050781 123.992188 " fill-opacity="1" fill-rule="nonzero"/></g><path fill="#ff66c4" d="M 199.164062 150.964844 C 192.5625 150.964844 186.417969 152.726562 181.011719 155.742188 C 181.011719 155.742188 180.898438 155.800781 180.839844 155.855469 C 179.644531 156.539062 178.566406 157.28125 177.425781 158.074219 C 177.140625 158.246094 176.914062 158.472656 176.628906 158.644531 C 176.117188 159.042969 175.664062 159.441406 175.152344 159.839844 C 174.921875 160.011719 174.695312 160.238281 174.46875 160.464844 C 173.671875 161.148438 172.929688 161.886719 172.191406 162.683594 C 171.90625 163.027344 171.621094 163.3125 171.339844 163.652344 C 170.996094 164.050781 170.65625 164.449219 170.3125 164.90625 C 169.914062 165.417969 169.515625 165.984375 169.117188 166.554688 C 168.777344 167.066406 168.4375 167.523438 168.09375 168.035156 C 167.753906 168.546875 167.46875 169.058594 167.128906 169.628906 C 166.898438 170.027344 166.730469 170.367188 166.5 170.765625 C 166.046875 171.621094 165.648438 172.472656 165.25 173.328125 C 165.136719 173.554688 165.078125 173.78125 164.964844 174.007812 C 164.679688 174.75 164.394531 175.546875 164.109375 176.34375 C 163.996094 176.683594 163.882812 176.96875 163.828125 177.308594 C 163.542969 178.277344 163.257812 179.300781 163.03125 180.324219 C 163.03125 180.4375 163.03125 180.554688 163.03125 180.609375 C 162.859375 181.578125 162.6875 182.542969 162.574219 183.570312 C 162.574219 183.855469 162.519531 184.136719 162.460938 184.421875 C 162.347656 185.503906 162.289062 186.640625 162.289062 187.78125 C 162.289062 208.09375 178.734375 224.539062 199.050781 224.539062 C 219.363281 224.539062 201.609375 224.484375 202.863281 224.371094 C 203.148438 224.371094 203.433594 224.253906 203.714844 224.253906 C 204.683594 224.140625 205.652344 224.027344 206.5625 223.800781 C 206.847656 223.800781 207.074219 223.6875 207.300781 223.628906 C 208.269531 223.402344 209.234375 223.175781 210.148438 222.890625 C 210.316406 222.832031 210.488281 222.777344 210.660156 222.71875 C 211.683594 222.378906 212.652344 222.035156 213.617188 221.582031 C 213.730469 221.582031 213.789062 221.46875 213.902344 221.46875 C 214.925781 221.011719 215.949219 220.5 216.917969 219.988281 C 216.917969 219.988281 216.976562 219.988281 217.03125 219.988281 C 220.160156 218.222656 223.0625 215.949219 225.511719 213.386719 C 231.828125 206.785156 235.753906 197.851562 235.753906 188.007812 C 235.753906 167.691406 219.308594 151.246094 198.992188 151.246094 Z M 199.164062 150.964844 " fill-opacity="1" fill-rule="nonzero"/></svg>