<svg xmlns="http://www.w3.org/2000/svg" xmlns:xlink="http://www.w3.org/1999/xlink" width="1024" zoomAndPan="magnify" viewBox="0 0 768 576" height="768" preserveAspectRatio="xMidYMid meet" version="1.0"><defs><g/><clipPath id="888ef4dc45"><path d="M 57.601562 183.910156 L 242.101562 183.910156 L 242.101562 392.410156 L 57.601562 392.410156 Z M 57.601562 183.910156 " clip-rule="nonzero"/></clipPath><clipPath id="70df136394"><rect x="0" width="431" y="0" height="90"/></clipPath></defs><g clip-path="url(#888ef4dc45)"><path fill="#ff66c4" d="M 79.507812 224.492188 C 79.453125 224.605469 79.335938 224.660156 79.28125 224.773438 C 75.636719 229.441406 72.394531 234.449219 69.605469 239.742188 C 69.492188 239.96875 69.320312 240.253906 69.207031 240.480469 C 68.46875 241.902344 67.730469 243.382812 67.046875 244.863281 C 66.875 245.261719 66.703125 245.660156 66.476562 246.058594 C 65.851562 247.480469 65.28125 248.84375 64.714844 250.269531 C 64.542969 250.667969 64.371094 251.066406 64.257812 251.464844 C 63.632812 253.171875 63.007812 254.878906 62.492188 256.585938 C 62.492188 256.699219 62.4375 256.8125 62.378906 256.925781 C 61.8125 258.804688 61.242188 260.679688 60.785156 262.617188 C 60.671875 263.015625 60.617188 263.414062 60.503906 263.8125 C 60.160156 265.289062 59.820312 266.769531 59.535156 268.308594 C 59.421875 268.933594 59.308594 269.558594 59.191406 270.183594 C 58.964844 271.492188 58.738281 272.800781 58.566406 274.109375 C 58.453125 274.792969 58.398438 275.476562 58.28125 276.160156 C 58.113281 277.523438 58 278.890625 57.882812 280.257812 C 57.882812 280.882812 57.769531 281.507812 57.769531 282.132812 C 57.65625 284.125 57.601562 286.117188 57.601562 288.109375 C 57.601562 320.542969 72.339844 350.535156 98.058594 370.394531 C 116.382812 384.5625 138.347656 392.015625 161.507812 392.015625 C 184.667969 392.015625 215.339844 381.203125 234.96875 361.574219 L 242.3125 354.289062 L 228.253906 340.234375 C 228.253906 340.234375 203.503906 315.480469 203.503906 315.480469 L 196.21875 322.820312 C 186.941406 332.097656 174.59375 337.160156 161.507812 337.160156 C 140.625 337.160156 122.015625 323.902344 115.1875 304.15625 L 113.707031 299.945312 L 92.3125 299.945312 L 94.757812 308.027344 C 103.523438 337.332031 131.007812 357.761719 161.507812 357.761719 C 192.007812 357.761719 163.898438 357.761719 164.921875 357.644531 C 165.945312 357.644531 166.96875 357.53125 167.878906 357.417969 C 168.621094 357.417969 169.359375 357.304688 170.042969 357.191406 C 170.496094 357.191406 171.011719 357.078125 171.179688 357.019531 C 172.148438 356.90625 173.117188 356.734375 173.914062 356.566406 C 174.824219 356.453125 175.675781 356.222656 176.472656 356.054688 C 176.871094 355.996094 177.269531 355.882812 177.667969 355.769531 C 178.292969 355.65625 178.917969 355.484375 179.546875 355.3125 C 179.832031 355.257812 180.113281 355.199219 180.398438 355.085938 L 181.140625 354.859375 C 181.652344 354.6875 182.164062 354.574219 182.390625 354.460938 C 183.074219 354.230469 183.757812 354.0625 184.269531 353.832031 C 184.667969 353.71875 185.066406 353.550781 185.351562 353.433594 C 186.03125 353.207031 186.660156 352.980469 187.113281 352.753906 C 187.625 352.582031 188.082031 352.355469 188.648438 352.125 C 188.648438 352.125 189.730469 351.671875 189.789062 351.613281 C 190.414062 351.328125 191.039062 351.046875 191.722656 350.703125 C 192.804688 350.136719 194.113281 349.507812 195.363281 348.824219 C 196.046875 348.484375 196.671875 348.085938 197.355469 347.6875 C 198.550781 347.003906 199.691406 346.207031 200.769531 345.527344 C 201.566406 345.011719 202.308594 344.5 202.933594 343.988281 L 212.664062 353.71875 C 211.808594 354.347656 211.011719 354.972656 210.160156 355.597656 C 209.648438 355.9375 209.191406 356.28125 208.679688 356.621094 C 208.167969 356.964844 207.714844 357.304688 207.199219 357.644531 C 207.085938 357.761719 206.917969 357.816406 206.800781 357.875 C 193.429688 366.523438 177.726562 371.246094 161.507812 371.246094 C 154.792969 370.960938 148.589844 370.222656 142.785156 369.140625 C 131.175781 366.464844 120.25 361.34375 110.632812 353.890625 C 90.035156 337.957031 78.199219 313.945312 78.199219 287.9375 C 78.199219 261.933594 78.257812 284.636719 78.371094 282.988281 C 79.109375 270.808594 82.410156 259.371094 87.816406 249.128906 C 87.871094 249.015625 87.929688 248.902344 87.988281 248.789062 C 88.5 247.820312 89.066406 246.910156 89.582031 245.945312 C 89.695312 245.714844 89.808594 245.546875 89.921875 245.316406 C 90.433594 244.464844 91.003906 243.609375 91.515625 242.757812 C 91.6875 242.472656 91.855469 242.246094 92.027344 241.960938 C 92.539062 241.164062 93.109375 240.421875 93.621094 239.628906 C 93.847656 239.34375 94.019531 239 94.246094 238.714844 C 94.757812 237.976562 95.328125 237.292969 95.898438 236.554688 C 96.179688 236.210938 96.410156 235.871094 96.691406 235.585938 C 97.207031 234.902344 97.773438 234.277344 98.34375 233.59375 C 98.628906 233.253906 98.914062 232.914062 99.253906 232.570312 C 99.824219 231.945312 100.335938 231.375 100.902344 230.75 C 101.246094 230.410156 101.585938 230.011719 101.929688 229.667969 C 102.496094 229.101562 103.066406 228.53125 103.636719 227.960938 C 104.035156 227.621094 104.375 227.222656 104.773438 226.878906 C 105.34375 226.367188 105.910156 225.855469 106.480469 225.34375 C 106.878906 225.003906 107.277344 224.605469 107.734375 224.261719 C 108.300781 223.75 108.871094 223.296875 109.441406 222.839844 C 109.894531 222.5 110.351562 222.15625 110.804688 221.757812 C 111.375 221.304688 111.945312 220.847656 112.570312 220.449219 C 113.023438 220.109375 113.535156 219.765625 113.992188 219.425781 C 114.5625 219.027344 115.1875 218.628906 115.757812 218.230469 C 116.269531 217.890625 116.78125 217.546875 117.292969 217.265625 C 117.746094 216.980469 118.261719 216.695312 118.714844 216.410156 C 119 216.238281 119.285156 216.070312 119.570312 215.898438 C 119.96875 215.671875 120.308594 215.441406 120.707031 215.214844 C 121.105469 214.988281 121.503906 214.761719 121.902344 214.589844 C 122.128906 214.476562 122.414062 214.304688 122.640625 214.191406 C 123.152344 213.90625 123.664062 213.679688 124.179688 213.394531 C 124.179688 213.394531 124.292969 213.394531 124.347656 213.335938 C 124.917969 213.054688 125.488281 212.769531 126.054688 212.484375 C 126.683594 212.199219 127.25 211.914062 127.875 211.6875 C 128.332031 211.460938 128.84375 211.289062 129.300781 211.0625 C 129.582031 210.949219 129.925781 210.832031 130.210938 210.664062 C 130.664062 210.492188 131.121094 210.320312 131.574219 210.09375 C 131.972656 209.921875 132.371094 209.808594 132.769531 209.636719 C 133.054688 209.523438 133.28125 209.410156 133.566406 209.355469 C 134.136719 209.125 134.761719 208.957031 135.332031 208.726562 C 135.957031 208.5 136.527344 208.328125 137.152344 208.160156 C 137.835938 207.929688 138.519531 207.761719 139.199219 207.589844 C 139.710938 207.476562 140.167969 207.304688 140.679688 207.191406 C 140.964844 207.132812 141.25 207.078125 141.535156 206.964844 C 142.101562 206.851562 142.613281 206.679688 143.183594 206.566406 C 143.582031 206.453125 143.980469 206.394531 144.4375 206.28125 C 144.71875 206.28125 145.003906 206.167969 145.230469 206.109375 C 145.914062 205.996094 146.597656 205.882812 147.28125 205.769531 C 147.851562 205.65625 148.417969 205.542969 149.046875 205.484375 C 149.839844 205.371094 150.695312 205.257812 151.492188 205.199219 C 151.890625 205.199219 152.34375 205.085938 152.742188 205.027344 C 153.085938 205.027344 153.371094 204.972656 153.710938 204.914062 C 154.449219 204.859375 155.191406 204.800781 155.875 204.746094 C 156.101562 204.746094 156.328125 204.746094 156.613281 204.746094 C 156.953125 204.746094 157.296875 204.746094 157.636719 204.6875 C 158.890625 204.632812 160.199219 204.574219 161.507812 204.574219 C 183.757812 204.574219 204.640625 213.222656 220.402344 228.984375 L 224.839844 233.425781 L 235.367188 222.898438 C 235.367188 222.898438 239.410156 218.855469 239.410156 218.855469 L 234.96875 214.417969 C 215.339844 194.785156 189.277344 183.976562 161.507812 183.976562 C 133.738281 183.976562 158.320312 183.976562 156.785156 184.089844 C 156.386719 184.089844 155.929688 184.089844 155.53125 184.144531 C 154.109375 184.203125 152.742188 184.316406 151.320312 184.488281 C 151.152344 184.488281 150.980469 184.488281 150.808594 184.488281 C 149.328125 184.65625 147.792969 184.828125 146.3125 185.054688 C 145.859375 185.113281 145.402344 185.167969 144.949219 185.285156 C 143.753906 185.453125 142.613281 185.683594 141.417969 185.910156 C 141.078125 185.964844 140.679688 186.023438 140.339844 186.136719 C 138.972656 186.421875 137.605469 186.761719 136.242188 187.105469 C 135.671875 187.21875 135.160156 187.390625 134.589844 187.558594 C 133.625 187.789062 132.714844 188.070312 131.746094 188.355469 C 131.234375 188.527344 130.722656 188.640625 130.152344 188.8125 C 128.902344 189.210938 127.707031 189.609375 126.453125 190.0625 C 125.828125 190.292969 125.203125 190.519531 124.578125 190.746094 C 123.835938 191.03125 123.097656 191.316406 122.414062 191.601562 C 121.789062 191.882812 121.105469 192.113281 120.480469 192.398438 C 119.339844 192.851562 118.261719 193.363281 117.179688 193.875 C 116.496094 194.21875 115.8125 194.558594 115.128906 194.898438 C 114.5625 195.183594 113.992188 195.46875 113.421875 195.8125 C 112.738281 196.152344 112 196.550781 111.316406 196.949219 C 110.292969 197.519531 109.324219 198.085938 108.359375 198.65625 C 98.96875 204.289062 90.492188 211.34375 83.320312 219.539062 C 83.265625 219.597656 83.207031 219.710938 83.148438 219.765625 C 81.898438 221.191406 80.703125 222.667969 79.566406 224.148438 Z M 79.507812 224.492188 " fill-opacity="1" fill-rule="nonzero"/></g><path fill="#ff66c4" d="M 161.621094 251.464844 C 155.019531 251.464844 148.875 253.226562 143.46875 256.242188 C 143.46875 256.242188 143.355469 256.300781 143.296875 256.355469 C 142.101562 257.039062 141.023438 257.78125 139.882812 258.574219 C 139.597656 258.746094 139.371094 258.972656 139.085938 259.144531 C 138.574219 259.542969 138.121094 259.941406 137.605469 260.339844 C 137.378906 260.511719 137.152344 260.738281 136.925781 260.964844 C 136.128906 261.648438 135.386719 262.386719 134.648438 263.183594 C 134.363281 263.527344 134.078125 263.8125 133.792969 264.152344 C 133.453125 264.550781 133.113281 264.949219 132.769531 265.40625 C 132.371094 265.917969 131.972656 266.484375 131.574219 267.054688 C 131.234375 267.566406 130.890625 268.023438 130.550781 268.535156 C 130.210938 269.046875 129.925781 269.558594 129.582031 270.128906 C 129.355469 270.527344 129.183594 270.867188 128.957031 271.265625 C 128.503906 272.121094 128.105469 272.972656 127.707031 273.828125 C 127.59375 274.054688 127.535156 274.28125 127.421875 274.507812 C 127.136719 275.25 126.851562 276.046875 126.566406 276.84375 C 126.453125 277.183594 126.339844 277.46875 126.285156 277.808594 C 126 278.777344 125.714844 279.800781 125.488281 280.824219 C 125.488281 280.9375 125.488281 281.054688 125.488281 281.109375 C 125.316406 282.078125 125.144531 283.042969 125.03125 284.070312 C 125.03125 284.355469 124.972656 284.636719 124.917969 284.921875 C 124.804688 286.003906 124.746094 287.140625 124.746094 288.28125 C 124.746094 308.59375 141.191406 325.039062 161.507812 325.039062 C 181.820312 325.039062 164.066406 324.984375 165.320312 324.871094 C 165.605469 324.871094 165.886719 324.753906 166.171875 324.753906 C 167.140625 324.640625 168.109375 324.527344 169.019531 324.300781 C 169.304688 324.300781 169.53125 324.1875 169.757812 324.128906 C 170.726562 323.902344 171.691406 323.675781 172.601562 323.390625 C 172.773438 323.332031 172.945312 323.277344 173.117188 323.21875 C 174.140625 322.878906 175.105469 322.535156 176.074219 322.082031 C 176.1875 322.082031 176.246094 321.96875 176.359375 321.96875 C 177.382812 321.511719 178.40625 321 179.375 320.488281 C 179.375 320.488281 179.433594 320.488281 179.488281 320.488281 C 182.617188 318.722656 185.519531 316.449219 187.96875 313.886719 C 194.285156 307.285156 198.210938 298.351562 198.210938 288.507812 C 198.210938 268.191406 181.765625 251.746094 161.449219 251.746094 Z M 161.621094 251.464844 " fill-opacity="1" fill-rule="nonzero"/><g transform="matrix(1, 0, 0, 1, 282, 243)"><g clip-path="url(#70df136394)"><g fill="#000000" fill-opacity="1"><g transform="translate(0.595213, 69.32027)"><g><path d="M 52.125 -36.171875 L 42.15625 -36.171875 C 41.863281 -37.804688 41.335938 -39.257812 40.578125 -40.53125 C 39.816406 -41.800781 38.863281 -42.878906 37.71875 -43.765625 C 36.582031 -44.660156 35.289062 -45.332031 33.84375 -45.78125 C 32.394531 -46.238281 30.835938 -46.46875 29.171875 -46.46875 C 26.203125 -46.46875 23.570312 -45.722656 21.28125 -44.234375 C 18.988281 -42.753906 17.191406 -40.585938 15.890625 -37.734375 C 14.585938 -34.878906 13.9375 -31.398438 13.9375 -27.296875 C 13.9375 -23.117188 14.585938 -19.601562 15.890625 -16.75 C 17.203125 -13.90625 19 -11.753906 21.28125 -10.296875 C 23.570312 -8.847656 26.191406 -8.125 29.140625 -8.125 C 30.773438 -8.125 32.304688 -8.34375 33.734375 -8.78125 C 35.171875 -9.21875 36.460938 -9.863281 37.609375 -10.71875 C 38.753906 -11.570312 39.722656 -12.617188 40.515625 -13.859375 C 41.304688 -15.109375 41.851562 -16.53125 42.15625 -18.125 L 52.125 -18.078125 C 51.75 -15.484375 50.941406 -13.046875 49.703125 -10.765625 C 48.472656 -8.492188 46.863281 -6.488281 44.875 -4.75 C 42.882812 -3.019531 40.554688 -1.671875 37.890625 -0.703125 C 35.222656 0.265625 32.257812 0.75 29 0.75 C 24.207031 0.75 19.925781 -0.359375 16.15625 -2.578125 C 12.382812 -4.804688 9.414062 -8.015625 7.25 -12.203125 C 5.082031 -16.398438 4 -21.429688 4 -27.296875 C 4 -33.179688 5.09375 -38.21875 7.28125 -42.40625 C 9.46875 -46.59375 12.441406 -49.796875 16.203125 -52.015625 C 19.972656 -54.234375 24.238281 -55.34375 29 -55.34375 C 32.039062 -55.34375 34.867188 -54.914062 37.484375 -54.0625 C 40.097656 -53.21875 42.425781 -51.972656 44.46875 -50.328125 C 46.507812 -48.679688 48.191406 -46.671875 49.515625 -44.296875 C 50.847656 -41.921875 51.71875 -39.210938 52.125 -36.171875 Z M 52.125 -36.171875 "/></g></g></g><g fill="#000000" fill-opacity="1"><g transform="translate(56.426026, 69.32027)"><g><path d="M 16.75 0.828125 C 14.144531 0.828125 11.804688 0.363281 9.734375 -0.5625 C 7.671875 -1.5 6.039062 -2.882812 4.84375 -4.71875 C 3.644531 -6.550781 3.046875 -8.804688 3.046875 -11.484375 C 3.046875 -13.796875 3.46875 -15.707031 4.3125 -17.21875 C 5.164062 -18.726562 6.332031 -19.9375 7.8125 -20.84375 C 9.289062 -21.75 10.957031 -22.4375 12.8125 -22.90625 C 14.664062 -23.382812 16.585938 -23.726562 18.578125 -23.9375 C 20.984375 -24.1875 22.929688 -24.410156 24.421875 -24.609375 C 25.910156 -24.816406 27 -25.140625 27.6875 -25.578125 C 28.375 -26.015625 28.71875 -26.695312 28.71875 -27.625 L 28.71875 -27.78125 C 28.71875 -29.789062 28.117188 -31.34375 26.921875 -32.4375 C 25.734375 -33.539062 24.019531 -34.09375 21.78125 -34.09375 C 19.414062 -34.09375 17.546875 -33.578125 16.171875 -32.546875 C 14.796875 -31.515625 13.867188 -30.300781 13.390625 -28.90625 L 4.375 -30.1875 C 5.082031 -32.664062 6.253906 -34.742188 7.890625 -36.421875 C 9.523438 -38.109375 11.523438 -39.375 13.890625 -40.21875 C 16.253906 -41.0625 18.867188 -41.484375 21.734375 -41.484375 C 23.703125 -41.484375 25.660156 -41.25 27.609375 -40.78125 C 29.566406 -40.320312 31.351562 -39.5625 32.96875 -38.5 C 34.59375 -37.445312 35.894531 -36.015625 36.875 -34.203125 C 37.863281 -32.390625 38.359375 -30.125 38.359375 -27.40625 L 38.359375 0 L 29.09375 0 L 29.09375 -5.625 L 28.765625 -5.625 C 28.179688 -4.488281 27.359375 -3.425781 26.296875 -2.4375 C 25.242188 -1.445312 23.921875 -0.65625 22.328125 -0.0625 C 20.734375 0.53125 18.875 0.828125 16.75 0.828125 Z M 19.25 -6.265625 C 21.1875 -6.265625 22.863281 -6.648438 24.28125 -7.421875 C 25.707031 -8.191406 26.804688 -9.21875 27.578125 -10.5 C 28.347656 -11.78125 28.734375 -13.175781 28.734375 -14.6875 L 28.734375 -19.515625 C 28.429688 -19.265625 27.921875 -19.03125 27.203125 -18.8125 C 26.484375 -18.601562 25.679688 -18.414062 24.796875 -18.25 C 23.910156 -18.09375 23.03125 -17.953125 22.15625 -17.828125 C 21.28125 -17.710938 20.523438 -17.609375 19.890625 -17.515625 C 18.453125 -17.316406 17.160156 -16.992188 16.015625 -16.546875 C 14.878906 -16.109375 13.984375 -15.492188 13.328125 -14.703125 C 12.671875 -13.910156 12.34375 -12.894531 12.34375 -11.65625 C 12.34375 -9.875 12.988281 -8.53125 14.28125 -7.625 C 15.582031 -6.71875 17.238281 -6.265625 19.25 -6.265625 Z M 19.25 -6.265625 "/></g></g></g><g fill="#000000" fill-opacity="1"><g transform="translate(99.565606, 69.32027)"><g><path d="M 4.953125 0 L 4.953125 -40.953125 L 14.3125 -40.953125 L 14.3125 -34.125 L 14.75 -34.125 C 15.488281 -36.488281 16.769531 -38.3125 18.59375 -39.59375 C 20.414062 -40.882812 22.5 -41.53125 24.84375 -41.53125 C 25.375 -41.53125 25.972656 -41.507812 26.640625 -41.46875 C 27.304688 -41.425781 27.863281 -41.359375 28.3125 -41.265625 L 28.3125 -32.390625 C 27.90625 -32.535156 27.257812 -32.664062 26.375 -32.78125 C 25.5 -32.894531 24.648438 -32.953125 23.828125 -32.953125 C 22.078125 -32.953125 20.503906 -32.570312 19.109375 -31.8125 C 17.710938 -31.0625 16.613281 -30.019531 15.8125 -28.6875 C 15.007812 -27.351562 14.609375 -25.816406 14.609375 -24.078125 L 14.609375 0 Z M 4.953125 0 "/></g></g></g><g fill="#000000" fill-opacity="1"><g transform="translate(127.640878, 69.32027)"><g><path d="M 23.09375 0.796875 C 18.988281 0.796875 15.445312 -0.0546875 12.46875 -1.765625 C 9.488281 -3.484375 7.195312 -5.921875 5.59375 -9.078125 C 4 -12.234375 3.203125 -15.953125 3.203125 -20.234375 C 3.203125 -24.441406 4.003906 -28.140625 5.609375 -31.328125 C 7.222656 -34.523438 9.476562 -37.015625 12.375 -38.796875 C 15.269531 -40.585938 18.671875 -41.484375 22.578125 -41.484375 C 25.109375 -41.484375 27.492188 -41.078125 29.734375 -40.265625 C 31.984375 -39.460938 33.972656 -38.21875 35.703125 -36.53125 C 37.441406 -34.84375 38.804688 -32.695312 39.796875 -30.09375 C 40.796875 -27.488281 41.296875 -24.390625 41.296875 -20.796875 L 41.296875 -17.84375 L 7.734375 -17.84375 L 7.734375 -24.34375 L 32.046875 -24.34375 C 32.023438 -26.1875 31.625 -27.832031 30.84375 -29.28125 C 30.0625 -30.726562 28.972656 -31.867188 27.578125 -32.703125 C 26.179688 -33.546875 24.5625 -33.96875 22.71875 -33.96875 C 20.738281 -33.96875 19.003906 -33.488281 17.515625 -32.53125 C 16.023438 -31.582031 14.863281 -30.335938 14.03125 -28.796875 C 13.207031 -27.265625 12.785156 -25.582031 12.765625 -23.75 L 12.765625 -18.078125 C 12.765625 -15.691406 13.203125 -13.648438 14.078125 -11.953125 C 14.953125 -10.253906 16.171875 -8.957031 17.734375 -8.0625 C 19.296875 -7.164062 21.125 -6.71875 23.21875 -6.71875 C 24.625 -6.71875 25.894531 -6.914062 27.03125 -7.3125 C 28.164062 -7.71875 29.148438 -8.3125 29.984375 -9.09375 C 30.828125 -9.875 31.460938 -10.84375 31.890625 -12 L 40.890625 -10.984375 C 40.328125 -8.597656 39.25 -6.519531 37.65625 -4.75 C 36.0625 -2.988281 34.03125 -1.625 31.5625 -0.65625 C 29.09375 0.3125 26.269531 0.796875 23.09375 0.796875 Z M 23.09375 0.796875 "/></g></g></g><g fill="#000000" fill-opacity="1"><g transform="translate(172.140238, 69.32027)"><g><path d="M 5.390625 0 L 5.390625 -54.609375 L 15.03125 -54.609375 L 15.03125 -34.171875 L 15.4375 -34.171875 C 15.9375 -35.171875 16.640625 -36.234375 17.546875 -37.359375 C 18.453125 -38.492188 19.675781 -39.460938 21.21875 -40.265625 C 22.769531 -41.078125 24.742188 -41.484375 27.140625 -41.484375 C 30.304688 -41.484375 33.160156 -40.675781 35.703125 -39.0625 C 38.253906 -37.457031 40.28125 -35.085938 41.78125 -31.953125 C 43.289062 -28.816406 44.046875 -24.972656 44.046875 -20.421875 C 44.046875 -15.921875 43.304688 -12.097656 41.828125 -8.953125 C 40.359375 -5.804688 38.351562 -3.40625 35.8125 -1.75 C 33.269531 -0.101562 30.390625 0.71875 27.171875 0.71875 C 24.828125 0.71875 22.878906 0.328125 21.328125 -0.453125 C 19.785156 -1.234375 18.546875 -2.175781 17.609375 -3.28125 C 16.671875 -4.394531 15.945312 -5.453125 15.4375 -6.453125 L 14.875 -6.453125 L 14.875 0 Z M 14.84375 -20.46875 C 14.84375 -17.820312 15.21875 -15.503906 15.96875 -13.515625 C 16.726562 -11.523438 17.820312 -9.972656 19.25 -8.859375 C 20.6875 -7.753906 22.425781 -7.203125 24.46875 -7.203125 C 26.601562 -7.203125 28.390625 -7.773438 29.828125 -8.921875 C 31.273438 -10.066406 32.363281 -11.640625 33.09375 -13.640625 C 33.832031 -15.640625 34.203125 -17.914062 34.203125 -20.46875 C 34.203125 -23.007812 33.835938 -25.265625 33.109375 -27.234375 C 32.378906 -29.210938 31.296875 -30.757812 29.859375 -31.875 C 28.421875 -33 26.625 -33.5625 24.46875 -33.5625 C 22.40625 -33.5625 20.65625 -33.019531 19.21875 -31.9375 C 17.78125 -30.851562 16.691406 -29.332031 15.953125 -27.375 C 15.210938 -25.425781 14.84375 -23.125 14.84375 -20.46875 Z M 14.84375 -20.46875 "/></g></g></g><g fill="#000000" fill-opacity="1"><g transform="translate(219.4658, 69.32027)"><g><path d="M 16.75 0.828125 C 14.144531 0.828125 11.804688 0.363281 9.734375 -0.5625 C 7.671875 -1.5 6.039062 -2.882812 4.84375 -4.71875 C 3.644531 -6.550781 3.046875 -8.804688 3.046875 -11.484375 C 3.046875 -13.796875 3.46875 -15.707031 4.3125 -17.21875 C 5.164062 -18.726562 6.332031 -19.9375 7.8125 -20.84375 C 9.289062 -21.75 10.957031 -22.4375 12.8125 -22.90625 C 14.664062 -23.382812 16.585938 -23.726562 18.578125 -23.9375 C 20.984375 -24.1875 22.929688 -24.410156 24.421875 -24.609375 C 25.910156 -24.816406 27 -25.140625 27.6875 -25.578125 C 28.375 -26.015625 28.71875 -26.695312 28.71875 -27.625 L 28.71875 -27.78125 C 28.71875 -29.789062 28.117188 -31.34375 26.921875 -32.4375 C 25.734375 -33.539062 24.019531 -34.09375 21.78125 -34.09375 C 19.414062 -34.09375 17.546875 -33.578125 16.171875 -32.546875 C 14.796875 -31.515625 13.867188 -30.300781 13.390625 -28.90625 L 4.375 -30.1875 C 5.082031 -32.664062 6.253906 -34.742188 7.890625 -36.421875 C 9.523438 -38.109375 11.523438 -39.375 13.890625 -40.21875 C 16.253906 -41.0625 18.867188 -41.484375 21.734375 -41.484375 C 23.703125 -41.484375 25.660156 -41.25 27.609375 -40.78125 C 29.566406 -40.320312 31.351562 -39.5625 32.96875 -38.5 C 34.59375 -37.445312 35.894531 -36.015625 36.875 -34.203125 C 37.863281 -32.390625 38.359375 -30.125 38.359375 -27.40625 L 38.359375 0 L 29.09375 0 L 29.09375 -5.625 L 28.765625 -5.625 C 28.179688 -4.488281 27.359375 -3.425781 26.296875 -2.4375 C 25.242188 -1.445312 23.921875 -0.65625 22.328125 -0.0625 C 20.734375 0.53125 18.875 0.828125 16.75 0.828125 Z M 19.25 -6.265625 C 21.1875 -6.265625 22.863281 -6.648438 24.28125 -7.421875 C 25.707031 -8.191406 26.804688 -9.21875 27.578125 -10.5 C 28.347656 -11.78125 28.734375 -13.175781 28.734375 -14.6875 L 28.734375 -19.515625 C 28.429688 -19.265625 27.921875 -19.03125 27.203125 -18.8125 C 26.484375 -18.601562 25.679688 -18.414062 24.796875 -18.25 C 23.910156 -18.09375 23.03125 -17.953125 22.15625 -17.828125 C 21.28125 -17.710938 20.523438 -17.609375 19.890625 -17.515625 C 18.453125 -17.316406 17.160156 -16.992188 16.015625 -16.546875 C 14.878906 -16.109375 13.984375 -15.492188 13.328125 -14.703125 C 12.671875 -13.910156 12.34375 -12.894531 12.34375 -11.65625 C 12.34375 -9.875 12.988281 -8.53125 14.28125 -7.625 C 15.582031 -6.71875 17.238281 -6.265625 19.25 -6.265625 Z M 19.25 -6.265625 "/></g></g></g><g fill="#000000" fill-opacity="1"><g transform="translate(262.60538, 69.32027)"><g><path d="M 14.609375 -24 L 14.609375 0 L 4.953125 0 L 4.953125 -40.953125 L 14.1875 -40.953125 L 14.1875 -34 L 14.65625 -34 C 15.601562 -36.289062 17.109375 -38.109375 19.171875 -39.453125 C 21.242188 -40.804688 23.8125 -41.484375 26.875 -41.484375 C 29.695312 -41.484375 32.160156 -40.878906 34.265625 -39.671875 C 36.378906 -38.460938 38.015625 -36.710938 39.171875 -34.421875 C 40.335938 -32.128906 40.910156 -29.347656 40.890625 -26.078125 L 40.890625 0 L 31.25 0 L 31.25 -24.578125 C 31.25 -27.316406 30.539062 -29.457031 29.125 -31 C 27.707031 -32.550781 25.757812 -33.328125 23.28125 -33.328125 C 21.59375 -33.328125 20.09375 -32.957031 18.78125 -32.21875 C 17.476562 -31.476562 16.457031 -30.414062 15.71875 -29.03125 C 14.976562 -27.644531 14.609375 -25.96875 14.609375 -24 Z M 14.609375 -24 "/></g></g></g><g fill="#000000" fill-opacity="1"><g transform="translate(308.384519, 69.32027)"><g><path d="M 22.765625 16.203125 C 19.296875 16.203125 16.316406 15.734375 13.828125 14.796875 C 11.347656 13.867188 9.351562 12.625 7.84375 11.0625 C 6.332031 9.5 5.28125 7.765625 4.6875 5.859375 L 13.390625 3.765625 C 13.773438 4.554688 14.335938 5.347656 15.078125 6.140625 C 15.828125 6.929688 16.835938 7.585938 18.109375 8.109375 C 19.378906 8.640625 20.984375 8.90625 22.921875 8.90625 C 25.660156 8.90625 27.925781 8.242188 29.71875 6.921875 C 31.519531 5.597656 32.421875 3.425781 32.421875 0.40625 L 32.421875 -7.359375 L 31.9375 -7.359375 C 31.4375 -6.359375 30.710938 -5.332031 29.765625 -4.28125 C 28.816406 -3.238281 27.5625 -2.363281 26 -1.65625 C 24.445312 -0.945312 22.5 -0.59375 20.15625 -0.59375 C 17.007812 -0.59375 14.160156 -1.332031 11.609375 -2.8125 C 9.054688 -4.289062 7.03125 -6.507812 5.53125 -9.46875 C 4.03125 -12.4375 3.28125 -16.148438 3.28125 -20.609375 C 3.28125 -25.109375 4.03125 -28.90625 5.53125 -32 C 7.03125 -35.101562 9.0625 -37.457031 11.625 -39.0625 C 14.1875 -40.675781 17.039062 -41.484375 20.1875 -41.484375 C 22.582031 -41.484375 24.554688 -41.078125 26.109375 -40.265625 C 27.671875 -39.460938 28.910156 -38.492188 29.828125 -37.359375 C 30.753906 -36.234375 31.457031 -35.171875 31.9375 -34.171875 L 32.46875 -34.171875 L 32.46875 -40.953125 L 41.984375 -40.953125 L 41.984375 0.671875 C 41.984375 4.171875 41.148438 7.066406 39.484375 9.359375 C 37.816406 11.648438 35.53125 13.363281 32.625 14.5 C 29.726562 15.632812 26.441406 16.203125 22.765625 16.203125 Z M 22.84375 -8.15625 C 24.894531 -8.15625 26.640625 -8.648438 28.078125 -9.640625 C 29.515625 -10.640625 30.601562 -12.070312 31.34375 -13.9375 C 32.09375 -15.8125 32.46875 -18.050781 32.46875 -20.65625 C 32.46875 -23.238281 32.097656 -25.5 31.359375 -27.4375 C 30.628906 -29.375 29.546875 -30.878906 28.109375 -31.953125 C 26.679688 -33.023438 24.925781 -33.5625 22.84375 -33.5625 C 20.695312 -33.5625 18.898438 -33 17.453125 -31.875 C 16.015625 -30.757812 14.929688 -29.226562 14.203125 -27.28125 C 13.484375 -25.34375 13.125 -23.132812 13.125 -20.65625 C 13.125 -18.15625 13.488281 -15.96875 14.21875 -14.09375 C 14.957031 -12.21875 16.050781 -10.757812 17.5 -9.71875 C 18.945312 -8.675781 20.726562 -8.15625 22.84375 -8.15625 Z M 22.84375 -8.15625 "/></g></g></g><g fill="#000000" fill-opacity="1"><g transform="translate(355.336795, 69.32027)"><g><path d="M 23.09375 0.796875 C 18.988281 0.796875 15.445312 -0.0546875 12.46875 -1.765625 C 9.488281 -3.484375 7.195312 -5.921875 5.59375 -9.078125 C 4 -12.234375 3.203125 -15.953125 3.203125 -20.234375 C 3.203125 -24.441406 4.003906 -28.140625 5.609375 -31.328125 C 7.222656 -34.523438 9.476562 -37.015625 12.375 -38.796875 C 15.269531 -40.585938 18.671875 -41.484375 22.578125 -41.484375 C 25.109375 -41.484375 27.492188 -41.078125 29.734375 -40.265625 C 31.984375 -39.460938 33.972656 -38.21875 35.703125 -36.53125 C 37.441406 -34.84375 38.804688 -32.695312 39.796875 -30.09375 C 40.796875 -27.488281 41.296875 -24.390625 41.296875 -20.796875 L 41.296875 -17.84375 L 7.734375 -17.84375 L 7.734375 -24.34375 L 32.046875 -24.34375 C 32.023438 -26.1875 31.625 -27.832031 30.84375 -29.28125 C 30.0625 -30.726562 28.972656 -31.867188 27.578125 -32.703125 C 26.179688 -33.546875 24.5625 -33.96875 22.71875 -33.96875 C 20.738281 -33.96875 19.003906 -33.488281 17.515625 -32.53125 C 16.023438 -31.582031 14.863281 -30.335938 14.03125 -28.796875 C 13.207031 -27.265625 12.785156 -25.582031 12.765625 -23.75 L 12.765625 -18.078125 C 12.765625 -15.691406 13.203125 -13.648438 14.078125 -11.953125 C 14.953125 -10.253906 16.171875 -8.957031 17.734375 -8.0625 C 19.296875 -7.164062 21.125 -6.71875 23.21875 -6.71875 C 24.625 -6.71875 25.894531 -6.914062 27.03125 -7.3125 C 28.164062 -7.71875 29.148438 -8.3125 29.984375 -9.09375 C 30.828125 -9.875 31.460938 -10.84375 31.890625 -12 L 40.890625 -10.984375 C 40.328125 -8.597656 39.25 -6.519531 37.65625 -4.75 C 36.0625 -2.988281 34.03125 -1.625 31.5625 -0.65625 C 29.09375 0.3125 26.269531 0.796875 23.09375 0.796875 Z M 23.09375 0.796875 "/></g></g></g><g fill="#000000" fill-opacity="1"><g transform="translate(399.836155, 69.32027)"><g><path d="M 25.40625 -40.953125 L 25.40625 -33.484375 L 1.859375 -33.484375 L 1.859375 -40.953125 Z M 7.671875 -50.765625 L 17.328125 -50.765625 L 17.328125 -12.3125 C 17.328125 -11.019531 17.523438 -10.03125 17.921875 -9.34375 C 18.328125 -8.65625 18.859375 -8.1875 19.515625 -7.9375 C 20.171875 -7.695312 20.898438 -7.578125 21.703125 -7.578125 C 22.304688 -7.578125 22.859375 -7.617188 23.359375 -7.703125 C 23.867188 -7.796875 24.257812 -7.875 24.53125 -7.9375 L 26.15625 -0.40625 C 25.632812 -0.226562 24.898438 -0.0351562 23.953125 0.171875 C 23.003906 0.390625 21.84375 0.519531 20.46875 0.5625 C 18.050781 0.632812 15.875 0.265625 13.9375 -0.546875 C 12 -1.359375 10.46875 -2.613281 9.34375 -4.3125 C 8.21875 -6.019531 7.660156 -8.15625 7.671875 -10.71875 Z M 7.671875 -50.765625 "/></g></g></g></g></g></svg>